<svg width="68" height="68" viewBox="0 0 68 68" fill="none" xmlns="http://www.w3.org/2000/svg">
<rect x="0.779907" y="0.786926" width="67" height="67" rx="16" fill="#FE367E"/>
<path d="M22.9399 41.1469C24.4866 41.1469 25.6199 40.8536 26.3399 40.2669C27.0599 39.6536 27.4199 38.8936 27.4199 37.9869C27.4199 37.1603 27.1399 36.5069 26.5799 36.0269C26.0199 35.5203 25.1666 35.0936 24.0199 34.7469L21.4599 33.9469C20.4466 33.6269 19.5266 33.2669 18.6999 32.8669C17.8732 32.4669 17.1666 32.0003 16.5799 31.4669C15.9932 30.9069 15.5399 30.2669 15.2199 29.5469C14.8999 28.8003 14.7399 27.9203 14.7399 26.9069C14.7399 24.7469 15.5532 23.0403 17.1799 21.7869C18.8066 20.5069 21.0332 19.8669 23.8599 19.8669C24.9799 19.8669 26.0066 19.9603 26.9399 20.1469C27.8999 20.3069 28.7266 20.5469 29.4199 20.8669C30.1132 21.1603 30.6466 21.5336 31.0199 21.9869C31.4199 22.4403 31.6199 22.9469 31.6199 23.5069C31.6199 24.0403 31.4866 24.5069 31.2199 24.9069C30.9799 25.2803 30.6732 25.5869 30.2999 25.8269C29.6599 25.3736 28.8066 24.9869 27.7399 24.6669C26.6999 24.3203 25.5532 24.1469 24.2999 24.1469C22.9132 24.1469 21.8599 24.4003 21.1399 24.9069C20.4199 25.3869 20.0599 26.0536 20.0599 26.9069C20.0599 27.6003 20.2999 28.1336 20.7799 28.5069C21.2866 28.8803 22.0732 29.2403 23.1399 29.5869L25.4199 30.3069C27.7399 31.0003 29.5399 31.9469 30.8199 33.1469C32.0999 34.3469 32.7399 35.9736 32.7399 38.0269C32.7399 39.1203 32.5266 40.1203 32.0999 41.0269C31.6732 41.9336 31.0466 42.7203 30.2199 43.3869C29.4199 44.0269 28.4066 44.5203 27.1799 44.8669C25.9799 45.2403 24.6066 45.4269 23.0599 45.4269C21.8332 45.4269 20.6999 45.3203 19.6599 45.1069C18.6466 44.8936 17.7666 44.6136 17.0199 44.2669C16.2732 43.8936 15.6866 43.4669 15.2599 42.9869C14.8599 42.4803 14.6599 41.9336 14.6599 41.3469C14.6599 40.7336 14.8332 40.2136 15.1799 39.7869C15.5532 39.3336 15.9799 39.0003 16.4599 38.7869C17.1266 39.3736 18.0066 39.9203 19.0999 40.4269C20.1932 40.9069 21.4732 41.1469 22.9399 41.1469ZM40.1043 44.8669C39.2509 44.8669 38.5709 44.6136 38.0643 44.1069C37.5843 43.6003 37.3443 42.9203 37.3443 42.0669V23.2669C37.3443 22.4136 37.5843 21.7469 38.0643 21.2669C38.5709 20.7603 39.2509 20.5069 40.1043 20.5069H53.3443C53.4776 20.7203 53.5976 21.0003 53.7043 21.3469C53.8109 21.6936 53.8643 22.0803 53.8643 22.5069C53.8643 23.2003 53.7043 23.7336 53.3843 24.1069C53.0643 24.4803 52.6243 24.6669 52.0643 24.6669H42.3843V30.3469H52.1443C52.2776 30.5603 52.3976 30.8403 52.5043 31.1869C52.6376 31.5069 52.7043 31.8803 52.7043 32.3069C52.7043 33.7469 52.0909 34.4669 50.8643 34.4669H42.3843V40.6669H53.5043C53.6376 40.8803 53.7576 41.1736 53.8643 41.5469C53.9976 41.8936 54.0643 42.2803 54.0643 42.7069C54.0643 44.1469 53.451 44.8669 52.2243 44.8669H40.1043Z" fill="#F0EBF2"/>
</svg>
