<svg width="150" height="67" viewBox="0 0 150 67" fill="none" xmlns="http://www.w3.org/2000/svg">
<path d="M10.16 40.36C11.7067 40.36 12.84 40.0667 13.56 39.48C14.28 38.8667 14.64 38.1067 14.64 37.2C14.64 36.3733 14.36 35.72 13.8 35.24C13.24 34.7333 12.3867 34.3067 11.24 33.96L8.68 33.16C7.66667 32.84 6.74667 32.48 5.92 32.08C5.09333 31.68 4.38667 31.2133 3.8 30.68C3.21333 30.12 2.76 29.48 2.44 28.76C2.12 28.0133 1.96 27.1333 1.96 26.12C1.96 23.96 2.77333 22.2533 4.4 21C6.02667 19.72 8.25333 19.08 11.08 19.08C12.2 19.08 13.2267 19.1733 14.16 19.36C15.12 19.52 15.9467 19.76 16.64 20.08C17.3333 20.3733 17.8667 20.7467 18.24 21.2C18.64 21.6533 18.84 22.16 18.84 22.72C18.84 23.2533 18.7067 23.72 18.44 24.12C18.2 24.4933 17.8933 24.8 17.52 25.04C16.88 24.5867 16.0267 24.2 14.96 23.88C13.92 23.5333 12.7733 23.36 11.52 23.36C10.1333 23.36 9.08 23.6133 8.36 24.12C7.64 24.6 7.28 25.2667 7.28 26.12C7.28 26.8133 7.52 27.3467 8 27.72C8.50667 28.0933 9.29333 28.4533 10.36 28.8L12.64 29.52C14.96 30.2133 16.76 31.16 18.04 32.36C19.32 33.56 19.96 35.1867 19.96 37.24C19.96 38.3333 19.7467 39.3333 19.32 40.24C18.8933 41.1467 18.2667 41.9333 17.44 42.6C16.64 43.24 15.6267 43.7333 14.4 44.08C13.2 44.4533 11.8267 44.64 10.28 44.64C9.05333 44.64 7.92 44.5333 6.88 44.32C5.86667 44.1067 4.98667 43.8267 4.24 43.48C3.49333 43.1067 2.90667 42.68 2.48 42.2C2.08 41.6933 1.88 41.1467 1.88 40.56C1.88 39.9467 2.05333 39.4267 2.4 39C2.77333 38.5467 3.2 38.2133 3.68 38C4.34667 38.5867 5.22667 39.1333 6.32 39.64C7.41333 40.12 8.69333 40.36 10.16 40.36ZM29.0844 38.12C29.0844 38.9733 29.3377 39.5867 29.8444 39.96C30.3777 40.3333 31.111 40.52 32.0444 40.52C32.4977 40.52 32.951 40.4667 33.4044 40.36C33.8844 40.2533 34.311 40.12 34.6844 39.96C34.8977 40.1733 35.071 40.44 35.2044 40.76C35.3644 41.0533 35.4444 41.4 35.4444 41.8C35.4444 42.6 35.0844 43.2667 34.3644 43.8C33.6444 44.3067 32.4844 44.56 30.8844 44.56C28.7777 44.56 27.111 44.0933 25.8844 43.16C24.6844 42.2 24.0844 40.6267 24.0844 38.44V20.08C24.2977 20.0267 24.6044 19.96 25.0044 19.88C25.431 19.8 25.8844 19.76 26.3644 19.76C27.2977 19.76 27.9777 19.9333 28.4044 20.28C28.8577 20.6267 29.0844 21.24 29.0844 22.12V25.44H34.9644C35.0977 25.6533 35.2177 25.9333 35.3244 26.28C35.431 26.6267 35.4844 27 35.4844 27.4C35.4844 28.0933 35.3244 28.6 35.0044 28.92C34.6844 29.24 34.2577 29.4 33.7244 29.4H29.0844V38.12ZM56.9169 40.28C56.9169 40.8933 56.8102 41.4133 56.5969 41.84C56.3835 42.24 55.9969 42.6 55.4369 42.92C54.6635 43.4 53.6769 43.8 52.4769 44.12C51.3035 44.44 49.9569 44.6 48.4369 44.6C47.0502 44.6 45.7969 44.44 44.6769 44.12C43.5569 43.8267 42.5969 43.36 41.7969 42.72C40.9969 42.08 40.3835 41.2667 39.9569 40.28C39.5302 39.2933 39.3169 38.12 39.3169 36.76V25.12C39.5302 25.04 39.8369 24.9733 40.2369 24.92C40.6635 24.84 41.1302 24.8 41.6369 24.8C42.5702 24.8 43.2635 24.9733 43.7169 25.32C44.1702 25.64 44.3969 26.2533 44.3969 27.16V36.68C44.3969 38.0667 44.7435 39.0667 45.4369 39.68C46.1569 40.2667 47.1702 40.56 48.4769 40.56C49.3035 40.56 49.9969 40.48 50.5569 40.32C51.1435 40.16 51.5835 39.9867 51.8769 39.8V25.12C52.0902 25.04 52.3969 24.9733 52.7969 24.92C53.2235 24.84 53.6769 24.8 54.1569 24.8C55.1169 24.8 55.8102 24.9733 56.2369 25.32C56.6902 25.64 56.9169 26.2533 56.9169 27.16V40.28ZM79.5331 40.32C79.5331 40.9333 79.3998 41.4267 79.1331 41.8C78.8665 42.1733 78.4665 42.5333 77.9331 42.88C77.2665 43.3067 76.3865 43.6933 75.2931 44.04C74.1998 44.4133 72.9331 44.6 71.4931 44.6C68.2931 44.6 65.7465 43.7867 63.8531 42.16C61.9865 40.5067 61.0531 37.9867 61.0531 34.6C61.0531 32.84 61.3065 31.3333 61.8131 30.08C62.3198 28.8 62.9998 27.7467 63.8531 26.92C64.7331 26.0933 65.7598 25.48 66.9331 25.08C68.1065 24.68 69.3731 24.48 70.7331 24.48C71.4531 24.48 72.1331 24.56 72.7731 24.72C73.4131 24.8533 73.9865 25.0267 74.4931 25.24V18C74.7065 17.92 75.0131 17.8533 75.4131 17.8C75.8398 17.72 76.2931 17.68 76.7731 17.68C77.7331 17.68 78.4265 17.8533 78.8531 18.2C79.3065 18.5467 79.5331 19.16 79.5331 20.04V40.32ZM74.4931 29.32C74.0931 29.08 73.6265 28.88 73.0931 28.72C72.5598 28.56 71.9865 28.48 71.3731 28.48C69.8798 28.48 68.6398 28.96 67.6531 29.92C66.6665 30.88 66.1731 32.4533 66.1731 34.64C66.1731 36.6933 66.6398 38.2 67.5731 39.16C68.5331 40.0933 69.8265 40.56 71.4531 40.56C72.1465 40.56 72.7331 40.48 73.2131 40.32C73.7198 40.16 74.1465 39.9733 74.4931 39.76V29.32Z" fill="#FE367E"/>
<path d="M87.9884 44.08C87.1351 44.08 86.4551 43.8267 85.9484 43.32C85.4684 42.8133 85.2284 42.1333 85.2284 41.28V22.48C85.2284 21.6267 85.4684 20.96 85.9484 20.48C86.4551 19.9733 87.1351 19.72 87.9884 19.72H101.228C101.362 19.9333 101.482 20.2133 101.588 20.56C101.695 20.9067 101.748 21.2933 101.748 21.72C101.748 22.4133 101.588 22.9467 101.268 23.32C100.948 23.6933 100.508 23.88 99.9484 23.88H90.2684V29.56H100.028C100.162 29.7733 100.282 30.0533 100.388 30.4C100.522 30.72 100.588 31.0933 100.588 31.52C100.588 32.96 99.9751 33.68 98.7484 33.68H90.2684V39.88H101.388C101.522 40.0933 101.642 40.3867 101.748 40.76C101.882 41.1067 101.948 41.4933 101.948 41.92C101.948 43.36 101.335 44.08 100.108 44.08H87.9884ZM111.194 43.96C110.954 44.0133 110.634 44.08 110.234 44.16C109.834 44.24 109.38 44.28 108.874 44.28C107.94 44.28 107.247 44.1067 106.794 43.76C106.34 43.4133 106.114 42.8 106.114 41.92V29.24C106.114 28.5467 106.274 27.96 106.594 27.48C106.914 27 107.38 26.5733 107.994 26.2C108.82 25.6933 109.834 25.28 111.034 24.96C112.26 24.64 113.58 24.48 114.994 24.48C117.527 24.48 118.794 25.2667 118.794 26.84C118.794 27.2133 118.727 27.5733 118.594 27.92C118.487 28.24 118.367 28.5067 118.234 28.72C117.62 28.5867 116.86 28.52 115.954 28.52C115.02 28.52 114.14 28.6267 113.314 28.84C112.487 29.0533 111.78 29.32 111.194 29.64V43.96ZM134.26 31.8C134.26 30.6533 133.926 29.8133 133.26 29.28C132.62 28.7467 131.74 28.48 130.62 28.48C129.846 28.48 129.126 28.5733 128.46 28.76C127.82 28.9467 127.26 29.1867 126.78 29.48V43.96C126.54 44.0133 126.22 44.08 125.82 44.16C125.42 44.24 124.966 44.28 124.46 44.28C123.526 44.28 122.833 44.1067 122.38 43.76C121.926 43.4133 121.7 42.8 121.7 41.92V29.08C121.7 28.44 121.833 27.92 122.1 27.52C122.366 27.12 122.78 26.7333 123.34 26.36C124.113 25.8267 125.14 25.3867 126.42 25.04C127.7 24.6667 129.113 24.48 130.66 24.48C133.406 24.48 135.526 25.0933 137.02 26.32C138.54 27.52 139.3 29.2933 139.3 31.64V43.96C139.086 44.0133 138.766 44.08 138.34 44.16C137.94 44.24 137.5 44.28 137.02 44.28C136.06 44.28 135.353 44.1067 134.9 43.76C134.473 43.4133 134.26 42.8 134.26 41.92V31.8Z" fill="#F0EBF2"/>
<path d="M149.735 27.9607L145.056 18.4528C144.801 17.9346 144.376 17.5346 143.844 17.3115L134.072 13.2118C133.247 12.8658 132.322 13.8481 132.717 14.6504L133.533 16.308C132.864 16.4639 132.216 16.8116 131.676 17.3518C131.263 17.2911 130.791 17.44 130.438 17.8151C130.117 18.1553 129.995 18.5801 130.035 18.9626L125.96 21.9649C125.606 22.226 125.521 22.7105 125.786 22.96L127.239 24.3286C127.504 24.5784 127.983 24.4646 128.222 24.0952L130.974 19.8475C131.359 19.864 131.775 19.7164 132.096 19.3762C132.439 19.0111 132.559 18.5478 132.488 18.1463C132.954 17.6909 133.548 17.4592 134.115 17.4923L137.396 24.1586C137.548 24.4673 137.895 25.0008 138.608 25.2999L148.38 29.3996C149.205 29.7456 150.13 28.7636 149.735 27.9607ZM137.942 26.4944C136.943 26.075 136.457 25.3293 136.243 24.8946L133.811 19.9516L130.072 23.186C129.022 24.3014 130.397 27.3021 133.144 29.8886C135.891 32.475 138.969 33.6677 140.019 32.5522L143.023 28.6258L137.942 26.4944Z" fill="#FE367E"/>
</svg>
